<svg xmlns="http://www.w3.org/2000/svg" xmlns:xlink="http://www.w3.org/1999/xlink" width="40" zoomAndPan="magnify" viewBox="0 0 30 30.000001" height="40" preserveAspectRatio="xMidYMid meet" version="1.0"><defs><clipPath id="c593d263ed"><path d="M 16 16 L 29 16 L 29 28 L 16 28 Z M 16 16 " clip-rule="nonzero"/></clipPath><clipPath id="d2facebc6d"><path d="M 21.117188 14.28125 L 30.550781 19.722656 L 24.386719 30.410156 L 14.957031 24.972656 Z M 21.117188 14.28125 " clip-rule="nonzero"/></clipPath><clipPath id="0b0824fcb8"><path d="M 21.117188 14.28125 L 30.550781 19.722656 L 24.386719 30.410156 L 14.957031 24.972656 Z M 21.117188 14.28125 " clip-rule="nonzero"/></clipPath><clipPath id="8370ee611e"><path d="M 21.117188 14.28125 L 30.550781 19.722656 L 24.386719 30.410156 L 14.957031 24.972656 Z M 21.117188 14.28125 " clip-rule="nonzero"/></clipPath><clipPath id="25084e9701"><path d="M 16 16 L 29 16 L 29 23 L 16 23 Z M 16 16 " clip-rule="nonzero"/></clipPath><clipPath id="8f7365e3f0"><path d="M 21.117188 14.28125 L 30.550781 19.722656 L 24.386719 30.410156 L 14.957031 24.972656 Z M 21.117188 14.28125 " clip-rule="nonzero"/></clipPath><clipPath id="5d1f72bffa"><path d="M 21.117188 14.28125 L 30.550781 19.722656 L 24.386719 30.410156 L 14.957031 24.972656 Z M 21.117188 14.28125 " clip-rule="nonzero"/></clipPath><clipPath id="625858f033"><path d="M 21.117188 14.28125 L 30.550781 19.722656 L 24.386719 30.410156 L 14.957031 24.972656 Z M 21.117188 14.28125 " clip-rule="nonzero"/></clipPath><clipPath id="35cf06c371"><path d="M 18 18 L 27 18 L 27 27 L 18 27 Z M 18 18 " clip-rule="nonzero"/></clipPath><clipPath id="4e8bc9cd45"><path d="M 21.117188 14.28125 L 30.550781 19.722656 L 24.386719 30.410156 L 14.957031 24.972656 Z M 21.117188 14.28125 " clip-rule="nonzero"/></clipPath><clipPath id="ea0d6da20f"><path d="M 21.117188 14.28125 L 30.550781 19.722656 L 24.386719 30.410156 L 14.957031 24.972656 Z M 21.117188 14.28125 " clip-rule="nonzero"/></clipPath><clipPath id="ae5737b416"><path d="M 21.117188 14.28125 L 30.550781 19.722656 L 24.386719 30.410156 L 14.957031 24.972656 Z M 21.117188 14.28125 " clip-rule="nonzero"/></clipPath><clipPath id="9bd68dc42f"><path d="M 22 22 L 29 22 L 29 28 L 22 28 Z M 22 22 " clip-rule="nonzero"/></clipPath><clipPath id="d92a7c0287"><path d="M 21.117188 14.28125 L 30.550781 19.722656 L 24.386719 30.410156 L 14.957031 24.972656 Z M 21.117188 14.28125 " clip-rule="nonzero"/></clipPath><clipPath id="db54dba4cc"><path d="M 21.117188 14.28125 L 30.550781 19.722656 L 24.386719 30.410156 L 14.957031 24.972656 Z M 21.117188 14.28125 " clip-rule="nonzero"/></clipPath><clipPath id="47a9022cc4"><path d="M 21.117188 14.28125 L 30.550781 19.722656 L 24.386719 30.410156 L 14.957031 24.972656 Z M 21.117188 14.28125 " clip-rule="nonzero"/></clipPath><clipPath id="2419016e03"><path d="M 24 22 L 28 22 L 28 26 L 24 26 Z M 24 22 " clip-rule="nonzero"/></clipPath><clipPath id="b660dfa045"><path d="M 21.117188 14.28125 L 30.550781 19.722656 L 24.386719 30.410156 L 14.957031 24.972656 Z M 21.117188 14.28125 " clip-rule="nonzero"/></clipPath><clipPath id="30949e5771"><path d="M 21.117188 14.28125 L 30.550781 19.722656 L 24.386719 30.410156 L 14.957031 24.972656 Z M 21.117188 14.28125 " clip-rule="nonzero"/></clipPath><clipPath id="07b3846ff3"><path d="M 21.117188 14.28125 L 30.550781 19.722656 L 24.386719 30.410156 L 14.957031 24.972656 Z M 21.117188 14.28125 " clip-rule="nonzero"/></clipPath><clipPath id="4b41041aff"><path d="M 23 22 L 28 22 L 28 26 L 23 26 Z M 23 22 " clip-rule="nonzero"/></clipPath><clipPath id="c5790b78f4"><path d="M 21.117188 14.28125 L 30.550781 19.722656 L 24.386719 30.410156 L 14.957031 24.972656 Z M 21.117188 14.28125 " clip-rule="nonzero"/></clipPath><clipPath id="cccdaffc01"><path d="M 21.117188 14.28125 L 30.550781 19.722656 L 24.386719 30.410156 L 14.957031 24.972656 Z M 21.117188 14.28125 " clip-rule="nonzero"/></clipPath><clipPath id="60fa8fae4d"><path d="M 21.117188 14.28125 L 30.550781 19.722656 L 24.386719 30.410156 L 14.957031 24.972656 Z M 21.117188 14.28125 " clip-rule="nonzero"/></clipPath><clipPath id="d128f01895"><path d="M 1 1 L 14 1 L 14 14 L 1 14 Z M 1 1 " clip-rule="nonzero"/></clipPath><clipPath id="7ff3c8e9b3"><path d="M 0.484375 3.628906 L 10.703125 -0.132812 L 14.960938 11.449219 L 4.746094 15.207031 Z M 0.484375 3.628906 " clip-rule="nonzero"/></clipPath><clipPath id="a7f39fb1a5"><path d="M 0.484375 3.628906 L 10.703125 -0.132812 L 14.960938 11.449219 L 4.746094 15.207031 Z M 0.484375 3.628906 " clip-rule="nonzero"/></clipPath><clipPath id="f50ec7bab9"><path d="M 0.484375 3.628906 L 10.703125 -0.132812 L 14.960938 11.449219 L 4.746094 15.207031 Z M 0.484375 3.628906 " clip-rule="nonzero"/></clipPath><clipPath id="b6a517427c"><path d="M 1 1 L 12 1 L 12 13 L 1 13 Z M 1 1 " clip-rule="nonzero"/></clipPath><clipPath id="84776b72d6"><path d="M 0.484375 3.628906 L 10.703125 -0.132812 L 14.960938 11.449219 L 4.746094 15.207031 Z M 0.484375 3.628906 " clip-rule="nonzero"/></clipPath><clipPath id="0937cbbb44"><path d="M 0.484375 3.628906 L 10.703125 -0.132812 L 14.960938 11.449219 L 4.746094 15.207031 Z M 0.484375 3.628906 " clip-rule="nonzero"/></clipPath><clipPath id="1ead1fc934"><path d="M 0.484375 3.628906 L 10.703125 -0.132812 L 14.960938 11.449219 L 4.746094 15.207031 Z M 0.484375 3.628906 " clip-rule="nonzero"/></clipPath><clipPath id="b777aacf14"><path d="M 3 3 L 12 3 L 12 12 L 3 12 Z M 3 3 " clip-rule="nonzero"/></clipPath><clipPath id="d744f5eb07"><path d="M 0.484375 3.628906 L 10.703125 -0.132812 L 14.960938 11.449219 L 4.746094 15.207031 Z M 0.484375 3.628906 " clip-rule="nonzero"/></clipPath><clipPath id="37a626acb8"><path d="M 0.484375 3.628906 L 10.703125 -0.132812 L 14.960938 11.449219 L 4.746094 15.207031 Z M 0.484375 3.628906 " clip-rule="nonzero"/></clipPath><clipPath id="89e3679184"><path d="M 0.484375 3.628906 L 10.703125 -0.132812 L 14.960938 11.449219 L 4.746094 15.207031 Z M 0.484375 3.628906 " clip-rule="nonzero"/></clipPath><clipPath id="e9c526af97"><path d="M 7 2 L 14 2 L 14 9 L 7 9 Z M 7 2 " clip-rule="nonzero"/></clipPath><clipPath id="3cccbef297"><path d="M 0.484375 3.628906 L 10.703125 -0.132812 L 14.960938 11.449219 L 4.746094 15.207031 Z M 0.484375 3.628906 " clip-rule="nonzero"/></clipPath><clipPath id="76e9f503f9"><path d="M 0.484375 3.628906 L 10.703125 -0.132812 L 14.960938 11.449219 L 4.746094 15.207031 Z M 0.484375 3.628906 " clip-rule="nonzero"/></clipPath><clipPath id="8bbc92b963"><path d="M 0.484375 3.628906 L 10.703125 -0.132812 L 14.960938 11.449219 L 4.746094 15.207031 Z M 0.484375 3.628906 " clip-rule="nonzero"/></clipPath><clipPath id="87cb41dcd8"><path d="M 2 18 L 13 18 L 13 27 L 2 27 Z M 2 18 " clip-rule="nonzero"/></clipPath><clipPath id="fb1129894c"><path d="M 1.484375 23.605469 L 14.25 12.847656 L 17.992188 17.289062 L 5.226562 28.046875 Z M 1.484375 23.605469 " clip-rule="nonzero"/></clipPath><clipPath id="6792c991bc"><path d="M 1.484375 23.605469 L 14.25 12.847656 L 17.992188 17.289062 L 5.226562 28.046875 Z M 1.484375 23.605469 " clip-rule="nonzero"/></clipPath><clipPath id="604a472a15"><path d="M 1.484375 23.605469 L 14.25 12.847656 L 17.992188 17.289062 L 5.226562 28.046875 Z M 1.484375 23.605469 " clip-rule="nonzero"/></clipPath><clipPath id="efc74cc6c0"><path d="M 10 12 L 18 12 L 18 20 L 10 20 Z M 10 12 " clip-rule="nonzero"/></clipPath><clipPath id="7633f0aa27"><path d="M 1.484375 23.605469 L 14.25 12.847656 L 17.992188 17.289062 L 5.226562 28.046875 Z M 1.484375 23.605469 " clip-rule="nonzero"/></clipPath><clipPath id="361566194e"><path d="M 1.484375 23.605469 L 14.25 12.847656 L 17.992188 17.289062 L 5.226562 28.046875 Z M 1.484375 23.605469 " clip-rule="nonzero"/></clipPath><clipPath id="af2ddf62f7"><path d="M 1.484375 23.605469 L 14.25 12.847656 L 17.992188 17.289062 L 5.226562 28.046875 Z M 1.484375 23.605469 " clip-rule="nonzero"/></clipPath><clipPath id="3d7f54834b"><path d="M 12 13 L 17 13 L 17 19 L 12 19 Z M 12 13 " clip-rule="nonzero"/></clipPath><clipPath id="95c54e3c89"><path d="M 1.484375 23.605469 L 14.25 12.847656 L 17.992188 17.289062 L 5.226562 28.046875 Z M 1.484375 23.605469 " clip-rule="nonzero"/></clipPath><clipPath id="0996c1586c"><path d="M 1.484375 23.605469 L 14.25 12.847656 L 17.992188 17.289062 L 5.226562 28.046875 Z M 1.484375 23.605469 " clip-rule="nonzero"/></clipPath><clipPath id="3e6a83a7df"><path d="M 1.484375 23.605469 L 14.25 12.847656 L 17.992188 17.289062 L 5.226562 28.046875 Z M 1.484375 23.605469 " clip-rule="nonzero"/></clipPath><clipPath id="aaa3b67f1c"><path d="M 11 15 L 16 15 L 16 19 L 11 19 Z M 11 15 " clip-rule="nonzero"/></clipPath><clipPath id="38bb2a4d83"><path d="M 1.484375 23.605469 L 14.25 12.847656 L 17.992188 17.289062 L 5.226562 28.046875 Z M 1.484375 23.605469 " clip-rule="nonzero"/></clipPath><clipPath id="f7dece1b74"><path d="M 1.484375 23.605469 L 14.25 12.847656 L 17.992188 17.289062 L 5.226562 28.046875 Z M 1.484375 23.605469 " clip-rule="nonzero"/></clipPath><clipPath id="11be58f2d2"><path d="M 1.484375 23.605469 L 14.25 12.847656 L 17.992188 17.289062 L 5.226562 28.046875 Z M 1.484375 23.605469 " clip-rule="nonzero"/></clipPath><clipPath id="65ba17f4c6"><path d="M 13 14 L 17 14 L 17 19 L 13 19 Z M 13 14 " clip-rule="nonzero"/></clipPath><clipPath id="b2de4835a0"><path d="M 1.484375 23.605469 L 14.25 12.847656 L 17.992188 17.289062 L 5.226562 28.046875 Z M 1.484375 23.605469 " clip-rule="nonzero"/></clipPath><clipPath id="d8a32d7b9c"><path d="M 1.484375 23.605469 L 14.25 12.847656 L 17.992188 17.289062 L 5.226562 28.046875 Z M 1.484375 23.605469 " clip-rule="nonzero"/></clipPath><clipPath id="93d47b8ed5"><path d="M 1.484375 23.605469 L 14.25 12.847656 L 17.992188 17.289062 L 5.226562 28.046875 Z M 1.484375 23.605469 " clip-rule="nonzero"/></clipPath><clipPath id="7d0a87657f"><path d="M 17.507812 1.457031 L 27.671875 1.457031 L 27.671875 13.070312 L 17.507812 13.070312 Z M 17.507812 1.457031 " clip-rule="nonzero"/></clipPath></defs><g clip-path="url(#c593d263ed)"><g clip-path="url(#d2facebc6d)"><g clip-path="url(#0b0824fcb8)"><g clip-path="url(#8370ee611e)"><path fill="#00549d" d="M 25.507812 16.941406 C 25.730469 16.941406 25.9375 17.0625 26.050781 17.253906 C 26.601562 18.210938 28.269531 21.085938 28.824219 22.039062 C 28.9375 22.230469 28.9375 22.46875 28.824219 22.664062 C 28.273438 23.617188 26.621094 26.488281 26.070312 27.441406 C 25.957031 27.636719 25.753906 27.753906 25.527344 27.753906 C 24.425781 27.753906 21.101562 27.75 20 27.75 C 19.773438 27.75 19.570312 27.628906 19.457031 27.4375 C 18.902344 26.480469 17.238281 23.609375 16.683594 22.652344 C 16.570312 22.460938 16.570312 22.222656 16.679688 22.027344 C 17.230469 21.074219 18.886719 18.203125 19.4375 17.25 C 19.546875 17.058594 19.753906 16.9375 19.976562 16.9375 C 21.082031 16.9375 24.402344 16.941406 25.507812 16.941406 Z M 25.507812 16.941406 " fill-opacity="1" fill-rule="evenodd"/></g></g></g></g><g clip-path="url(#25084e9701)"><g clip-path="url(#8f7365e3f0)"><g clip-path="url(#5d1f72bffa)"><g clip-path="url(#625858f033)"><path fill="#0086d4" d="M 16.613281 22.316406 C 16.601562 22.191406 16.640625 22.097656 16.707031 21.984375 C 17.253906 21.035156 18.898438 18.179688 19.445312 17.230469 C 19.558594 17.039062 19.761719 16.921875 19.984375 16.921875 C 21.085938 16.925781 24.394531 16.929688 25.492188 16.933594 C 25.714844 16.933594 25.941406 17.066406 26.054688 17.257812 C 26.605469 18.207031 28.265625 21.050781 28.820312 22.003906 C 28.863281 22.078125 28.886719 22.15625 28.898438 22.242188 Z M 16.613281 22.316406 " fill-opacity="1" fill-rule="evenodd"/></g></g></g></g><g clip-path="url(#35cf06c371)"><g clip-path="url(#4e8bc9cd45)"><g clip-path="url(#ea0d6da20f)"><g clip-path="url(#ae5737b416)"><path fill="#ffffff" d="M 24.796875 18.800781 C 26.707031 19.902344 27.339844 22.382812 26.210938 24.339844 C 25.082031 26.296875 22.617188 26.992188 20.707031 25.890625 C 18.800781 24.792969 18.164062 22.308594 19.292969 20.351562 C 20.421875 18.394531 22.890625 17.699219 24.796875 18.800781 Z M 23.777344 20.574219 C 24.730469 21.125 25.046875 22.363281 24.484375 23.34375 C 23.917969 24.320312 22.683594 24.667969 21.730469 24.121094 C 20.777344 23.570312 20.460938 22.328125 21.023438 21.347656 C 21.589844 20.371094 22.820312 20.023438 23.777344 20.574219 Z M 23.777344 20.574219 " fill-opacity="1" fill-rule="evenodd"/></g></g></g></g><g clip-path="url(#9bd68dc42f)"><g clip-path="url(#d92a7c0287)"><g clip-path="url(#db54dba4cc)"><g clip-path="url(#47a9022cc4)"><path fill="#0075c0" d="M 28.898438 22.246094 C 28.953125 22.441406 28.84375 22.625 28.761719 22.769531 C 28.207031 23.730469 26.621094 26.460938 26.078125 27.425781 C 26.019531 27.527344 25.929688 27.613281 25.832031 27.667969 L 22.652344 22.289062 Z M 28.898438 22.246094 " fill-opacity="1" fill-rule="evenodd"/></g></g></g></g><g clip-path="url(#2419016e03)"><g clip-path="url(#b660dfa045)"><g clip-path="url(#30949e5771)"><g clip-path="url(#07b3846ff3)"><path fill="#ffffff" d="M 24.921875 22.582031 L 25.414062 22.867188 L 24.539062 24.386719 L 24.042969 24.101562 Z M 26.648438 23.582031 L 27.144531 23.867188 L 26.269531 25.386719 L 25.773438 25.101562 Z M 26.648438 23.582031 " fill-opacity="1" fill-rule="evenodd"/></g></g></g></g><g clip-path="url(#4b41041aff)"><g clip-path="url(#c5790b78f4)"><g clip-path="url(#cccdaffc01)"><g clip-path="url(#60fa8fae4d)"><path fill="#ffffff" d="M 24.132812 22.804688 L 25.617188 23.660156 L 25.324219 24.167969 L 23.84375 23.3125 Z M 25.863281 23.800781 L 27.347656 24.65625 L 27.054688 25.164062 L 25.570312 24.308594 Z M 25.863281 23.800781 " fill-opacity="1" fill-rule="evenodd"/></g></g></g></g><g clip-path="url(#d128f01895)"><g clip-path="url(#7ff3c8e9b3)"><g clip-path="url(#a7f39fb1a5)"><g clip-path="url(#f50ec7bab9)"><path fill="#283593" d="M 5.339844 1.960938 C 5.480469 1.789062 5.707031 1.707031 5.925781 1.746094 C 7.011719 1.933594 10.289062 2.492188 11.375 2.679688 C 11.597656 2.71875 11.777344 2.871094 11.855469 3.078125 C 12.234375 4.113281 13.378906 7.222656 13.761719 8.253906 C 13.835938 8.464844 13.796875 8.699219 13.652344 8.871094 C 12.945312 9.71875 10.816406 12.265625 10.109375 13.113281 C 9.964844 13.285156 9.742188 13.367188 9.519531 13.328125 C 8.433594 13.144531 5.160156 12.582031 4.070312 12.394531 C 3.851562 12.359375 3.667969 12.207031 3.589844 11.996094 C 3.210938 10.964844 2.066406 7.851562 1.6875 6.820312 C 1.609375 6.609375 1.652344 6.375 1.792969 6.207031 C 2.5 5.359375 4.632812 2.808594 5.339844 1.960938 Z M 5.339844 1.960938 " fill-opacity="1" fill-rule="evenodd"/></g></g></g></g><g clip-path="url(#b6a517427c)"><g clip-path="url(#84776b72d6)"><g clip-path="url(#0937cbbb44)"><g clip-path="url(#1ead1fc934)"><path fill="#5c6bc0" d="M 3.769531 12.234375 C 3.664062 12.160156 3.621094 12.074219 3.574219 11.949219 C 3.195312 10.921875 2.058594 7.828125 1.679688 6.800781 C 1.601562 6.59375 1.644531 6.359375 1.785156 6.1875 C 2.492188 5.347656 4.617188 2.808594 5.320312 1.964844 C 5.464844 1.796875 5.710938 1.707031 5.929688 1.746094 C 7.015625 1.929688 10.261719 2.476562 11.34375 2.660156 C 11.433594 2.675781 11.507812 2.703125 11.578125 2.753906 Z M 3.769531 12.234375 " fill-opacity="1" fill-rule="evenodd"/></g></g></g></g><g clip-path="url(#b777aacf14)"><g clip-path="url(#d744f5eb07)"><g clip-path="url(#37a626acb8)"><g clip-path="url(#89e3679184)"><path fill="#ffffff" d="M 6.308594 3.695312 C 8.378906 2.933594 10.691406 4.039062 11.46875 6.160156 C 12.25 8.28125 11.203125 10.617188 9.136719 11.378906 C 7.070312 12.140625 4.757812 11.035156 3.976562 8.917969 C 3.195312 6.796875 4.242188 4.457031 6.308594 3.695312 Z M 7.015625 5.617188 C 8.050781 5.238281 9.207031 5.789062 9.597656 6.847656 C 9.988281 7.910156 9.464844 9.078125 8.429688 9.457031 C 7.394531 9.839844 6.242188 9.285156 5.851562 8.226562 C 5.460938 7.167969 5.984375 5.996094 7.015625 5.617188 Z M 7.015625 5.617188 " fill-opacity="1" fill-rule="evenodd"/></g></g></g></g><g clip-path="url(#e9c526af97)"><g clip-path="url(#3cccbef297)"><g clip-path="url(#76e9f503f9)"><g clip-path="url(#8bbc92b963)"><path fill="#3949ab" d="M 11.582031 2.753906 C 11.765625 2.835938 11.839844 3.039062 11.894531 3.195312 C 12.277344 4.238281 13.359375 7.203125 13.753906 8.238281 C 13.796875 8.347656 13.800781 8.472656 13.78125 8.578125 L 7.613281 7.578125 Z M 11.582031 2.753906 " fill-opacity="1" fill-rule="evenodd"/></g></g></g></g><g clip-path="url(#87cb41dcd8)"><g clip-path="url(#fb1129894c)"><g clip-path="url(#6792c991bc)"><g clip-path="url(#604a472a15)"><path fill="#000000" d="M 2.464844 24.769531 L 3.144531 24.199219 L 3.726562 24.894531 L 4.347656 24.371094 L 3.761719 23.675781 L 4.441406 23.105469 L 6.210938 25.207031 L 5.53125 25.777344 L 4.941406 25.074219 L 4.320312 25.597656 L 4.910156 26.300781 L 4.234375 26.871094 Z M 5.917969 23.050781 L 5.320312 23.554688 L 4.734375 22.859375 L 6.601562 21.285156 L 7.191406 21.980469 L 6.59375 22.480469 L 7.777344 23.886719 L 7.097656 24.457031 L 5.917969 23.054688 Z M 6.898438 21.03125 L 7.605469 20.4375 L 8.664062 20.808594 L 8.476562 19.707031 L 9.179688 19.109375 L 10.949219 21.210938 L 10.273438 21.777344 L 9.398438 20.738281 L 9.5625 21.878906 L 9.550781 21.886719 L 8.457031 21.53125 L 9.332031 22.574219 L 8.671875 23.132812 Z M 9.519531 18.828125 L 10.195312 18.253906 L 11.382812 19.660156 L 12.335938 18.859375 L 12.917969 19.554688 L 11.289062 20.925781 Z M 9.519531 18.828125 " fill-opacity="1" fill-rule="nonzero"/></g></g></g></g><g clip-path="url(#efc74cc6c0)"><g clip-path="url(#7633f0aa27)"><g clip-path="url(#361566194e)"><g clip-path="url(#af2ddf62f7)"><path fill="#e44d26" d="M 10.492188 16.023438 L 14.253906 12.851562 L 17.261719 17.117188 L 16.09375 18.855469 L 14.1875 19.710938 Z M 10.492188 16.023438 " fill-opacity="1" fill-rule="nonzero"/></g></g></g></g><g clip-path="url(#3d7f54834b)"><g clip-path="url(#95c54e3c89)"><g clip-path="url(#0996c1586c)"><g clip-path="url(#3e6a83a7df)"><path fill="#f16529" d="M 16.753906 17.109375 L 14.183594 13.46875 L 12.648438 14.761719 L 15.8125 18.515625 Z M 16.753906 17.109375 " fill-opacity="1" fill-rule="nonzero"/></g></g></g></g><g clip-path="url(#aaa3b67f1c)"><g clip-path="url(#38bb2a4d83)"><g clip-path="url(#f7dece1b74)"><g clip-path="url(#11be58f2d2)"><path fill="#ebebeb" d="M 13.269531 16.761719 L 12.804688 16.296875 L 13.472656 15.738281 L 13.058594 15.25 L 11.878906 16.242188 L 13.25 17.609375 L 14.304688 16.722656 L 13.890625 16.234375 Z M 13.476562 17.839844 L 14.1875 18.546875 L 15.382812 18.011719 L 15.386719 18.011719 L 14.957031 17.503906 L 14.957031 17.507812 L 14.308594 17.800781 L 13.949219 17.4375 L 13.695312 17.652344 Z M 13.476562 17.839844 " fill-opacity="1" fill-rule="nonzero"/></g></g></g></g><g clip-path="url(#65ba17f4c6)"><g clip-path="url(#b2de4835a0)"><g clip-path="url(#d8a32d7b9c)"><g clip-path="url(#93d47b8ed5)"><path fill="#ffffff" d="M 15.082031 15.457031 L 14.984375 15.316406 L 13.890625 16.238281 L 14.300781 16.726562 L 14.878906 16.238281 L 15.359375 16.914062 L 14.957031 17.503906 L 15.382812 18.011719 L 16.117188 16.921875 L 16.054688 16.832031 Z M 13.46875 15.738281 L 14.605469 14.777344 L 14.238281 14.253906 L 13.058594 15.25 L 13.46875 15.734375 Z M 13.46875 15.738281 " fill-opacity="1" fill-rule="nonzero"/></g></g></g></g><g clip-path="url(#7d0a87657f)"><path fill="#0277bd" d="M 27.671875 1.457031 L 17.507812 1.457031 L 18.40625 11.847656 L 22.589844 13.070312 L 26.773438 11.847656 Z M 27.671875 1.457031 " fill-opacity="1" fill-rule="nonzero"/></g><path fill="#039be5" d="M 22.589844 2.375 L 22.589844 12.121094 L 25.9375 11.144531 L 26.683594 2.375 Z M 22.589844 2.375 " fill-opacity="1" fill-rule="nonzero"/><path fill="#ffffff" d="M 25.308594 3.902344 L 22.589844 3.902344 L 22.589844 5.125 L 24.054688 5.125 L 23.964844 6.347656 L 22.589844 6.347656 L 22.589844 7.570312 L 23.90625 7.570312 L 23.816406 8.945312 L 22.589844 9.371094 L 22.589844 10.65625 L 24.949219 9.859375 L 25.160156 6.347656 Z M 25.308594 3.902344 " fill-opacity="1" fill-rule="nonzero"/><path fill="#eeeeee" d="M 22.589844 3.902344 L 22.589844 5.125 L 19.929688 5.125 L 19.839844 3.902344 Z M 21.214844 6.347656 L 21.273438 7.570312 L 22.589844 7.570312 L 22.589844 6.347656 Z M 21.335938 8.179688 L 20.140625 8.179688 L 20.226562 9.859375 L 22.589844 10.65625 L 22.589844 9.371094 L 21.363281 8.945312 Z M 21.335938 8.179688 " fill-opacity="1" fill-rule="nonzero"/></svg>